<svg
                class="white-logo"
                id="Layer_1"
                data-name="Layer 1"
                xmlns="http://www.w3.org/2000/svg"
                viewBox="0 0 87.81 18.11"
              >
                <defs>
                  <style>
                    .cls-1 {
                      fill: #fff;
                    }
                    .cls-2 {
                      fill: #000000;
                      -webkit-transition: all 0.4s ease-out;
                      -o-transition: all 0.4s ease-out;
                      transition: all 0.4s ease-out;
                    }
                  </style>
                </defs>
                <title>Go to Home</title>
                <g class="logohvr" id="reuse">
                  <path
                    class="cls-1"
                    d="M9.64,9.94a4.29,4.29,0,0,1-4,4.57h-.2a3.88,3.88,0,0,1-2.68-1v3.61H0V5.63H2.75v.68a3.86,3.86,0,0,1,2.68-.94,4.31,4.31,0,0,1,4.22,4.4C9.65,9.83,9.64,9.88,9.64,9.94Zm-2.7,0A2.06,2.06,0,0,0,5,7.72H4.86A2.15,2.15,0,0,0,2.75,9.9v0a2.14,2.14,0,0,0,2,2.24h.07a2.06,2.06,0,0,0,2.09-2A1.48,1.48,0,0,0,6.94,9.94Z"
                  />
                  <path
                    class="cls-1"
                    d="M19.5,9.94A4.54,4.54,0,0,1,15,14.5h-.21a4.56,4.56,0,0,1-.6-9.1q.3,0,.6,0A4.55,4.55,0,0,1,19.5,9.75Zm-2.65,0a2.11,2.11,0,1,0-4.21-.29,1.41,1.41,0,0,0,0,.29,2.11,2.11,0,0,0,4.21.29A1.41,1.41,0,0,0,16.85,9.94Z"
                  />
                  <path class="cls-1" d="M20.41,1.88h2.76V14.26H20.41Z" />
                  <path
                    class="cls-1"
                    d="M31,14.26v-.69a3.88,3.88,0,0,1-2.68,1,4.31,4.31,0,0,1-4.22-4.38c0-.07,0-.13,0-.2a4.31,4.31,0,0,1,4-4.56h.17A3.9,3.9,0,0,1,31,6.31V5.63h2.75v8.63Zm0-4.32a2.15,2.15,0,0,0-2.07-2.23h0A2.07,2.07,0,0,0,26.8,9.76c0,.06,0,.12,0,.18a2.06,2.06,0,0,0,1.87,2.23h.21A2.14,2.14,0,0,0,31,10Z"
                  />
                  <path
                    class="cls-1"
                    d="M41.55,5.63l-.12,2.7h-.5c-1.92,0-3,1-3,3.23v2.7H35.21V5.63H38V7.28a3.34,3.34,0,0,1,3-1.77A2.08,2.08,0,0,1,41.55,5.63Z"
                  />
                  <rect
                    class="cls-1"
                    x="41.15"
                    y="5.5"
                    width="7.66"
                    height="2.82"
                    rx="0.17"
                  />
                  <circle class="cls-1" cx="52.96" cy="8.94" r="8.94" />
                  <g class="dot cls-2">
                    <path
                      d="M49.86,11.52V11.2a1.84,1.84,0,0,1-1.25.44,2,2,0,0,1-2-2V9.51a2,2,0,0,1,1.88-2.12h.12a1.84,1.84,0,0,1,1.25.44V5.76h1.28v5.76Zm0-2a1,1,0,1,0-1,1,1,1,0,0,0,1-1h0Z"
                    />
                    <path
                      d="M56,9.51A2.21,2.21,0,1,1,53.69,7.4h.12a2.1,2.1,0,0,1,2.19,2Zm-1.23,0a1,1,0,1,0-1,1,1,1,0,0,0,1-1Z"
                    />
                    <path
                      d="M58.29,11.63a1.44,1.44,0,0,1-1.6-1.26,1.93,1.93,0,0,1,0-.34V8.52H56v-1h.73V6.32H58V7.51h1.18v1H58V9.9c0,.42.2.59.53.59a1.33,1.33,0,0,0,.59-.16l.29,1A2.21,2.21,0,0,1,58.29,11.63Z"
                    />
                  </g>
                  <path
                    class="cls-1"
                    d="M67.06,11.63a1.67,1.67,0,0,1-1.65,1.69H63.9V9.91h1.33a1.66,1.66,0,0,1,1.82,1.48A1.93,1.93,0,0,1,67.06,11.63Zm-.83,0a.94.94,0,0,0-.88-1h-.59v1.92h.47a.94.94,0,0,0,1-.88Z"
                  />
                  <path
                    class="cls-1"
                    d="M68,12.21a.58.58,0,0,0,1.08.19l.71.15a1.25,1.25,0,0,1-1.25.78,1.33,1.33,0,1,1,0-2.66h0a1.27,1.27,0,0,1,1.29,1.25v.29Zm0-.49h1a.5.5,0,0,0-.5-.4A.53.53,0,0,0,68,11.72Z"
                  />
                  <path
                    class="cls-1"
                    d="M71.17,12.74c.21,0,.32-.09.32-.2s-.06-.15-.25-.19l-.51-.1c-.46-.08-.73-.33-.73-.73a1,1,0,0,1,1.08-.85,1,1,0,0,1,1.14.72l-.73.15a.38.38,0,0,0-.42-.3c-.21,0-.28.11-.28.2s0,.14.19.17l.59.12a.77.77,0,0,1,.69.76c0,.55-.48.84-1.14.84s-1.12-.21-1.18-.7l.78-.16C70.76,12.63,71,12.74,71.17,12.74Z"
                  />
                  <path
                    class="cls-1"
                    d="M73.45,10a.45.45,0,0,1-.46.44h0a.44.44,0,0,1-.46-.42v0A.45.45,0,0,1,73,9.55h0A.46.46,0,0,1,73.45,10Zm-.87.74h.8v2.51h-.8Z"
                  />
                  <path
                    class="cls-1"
                    d="M75,14.21a1.39,1.39,0,0,1-1.26-.6l.66-.36a.66.66,0,0,0,.59.3.58.58,0,0,0,.63-.51v-.17a1.1,1.1,0,0,1-.76.24,1.22,1.22,0,1,1,0-2.44,1.17,1.17,0,0,1,.76.24v-.16h.78V13C76.44,13.79,75.85,14.21,75,14.21Zm.62-2.33a.57.57,0,0,0-.57-.57h0a.58.58,0,1,0-.15,1.15H75a.58.58,0,0,0,.63-.53v0Z"
                  />
                  <path
                    class="cls-1"
                    d="M79.43,11.72v1.54h-.8V11.89a.45.45,0,0,0-.38-.5h0c-.31,0-.52.22-.52.7v1.17h-.8V10.75h.8V11a1,1,0,0,1,.77-.32,1,1,0,0,1,1,1Z"
                  />
                  <path
                    class="cls-1"
                    d="M65.57,17.33a1.75,1.75,0,0,1,0-3.5,1.64,1.64,0,0,1,1.68,1.29l-.81.19a.84.84,0,0,0-.87-.72,1,1,0,0,0,0,2,.87.87,0,0,0,.88-.74l.81.16A1.62,1.62,0,0,1,65.57,17.33Z"
                  />
                  <path
                    class="cls-1"
                    d="M70.18,16a1.39,1.39,0,1,1-1.46-1.32h.08a1.32,1.32,0,0,1,1.38,1.26Zm-.77,0a.62.62,0,1,0-1.24.06.63.63,0,0,0,.63.59.62.62,0,0,0,.61-.63Z"
                  />
                  <path
                    class="cls-1"
                    d="M74.66,15.69v1.57h-.8v-1.4a.43.43,0,0,0-.37-.47h0c-.29,0-.49.22-.49.64v1.23h-.8v-1.4a.43.43,0,0,0-.37-.47h0c-.29,0-.48.22-.48.64v1.23h-.8V14.75h.8V15a1,1,0,0,1,.75-.35.94.94,0,0,1,.82.43,1.12,1.12,0,0,1,.88-.43,1,1,0,0,1,1,1Z"
                  />
                  <path
                    class="cls-1"
                    d="M77.86,16a1.26,1.26,0,0,1-1.17,1.33h0a1.13,1.13,0,0,1-.78-.27v1.05h-.8V14.75h.8V15a1.1,1.1,0,0,1,.78-.28A1.25,1.25,0,0,1,77.86,16Zm-.78,0a.61.61,0,0,0-.57-.65h0a.63.63,0,0,0-.61.65h0a.62.62,0,0,0,.59.65h0a.6.6,0,0,0,.61-.59Z"
                  />
                  <path
                    class="cls-1"
                    d="M80,17.26v-.2a1.13,1.13,0,0,1-.78.27,1.33,1.33,0,1,1,0-2.66A1.1,1.1,0,0,1,80,15v-.2h.8v2.51ZM80,16a.63.63,0,0,0-.61-.65h0a.65.65,0,1,0,0,1.3A.62.62,0,0,0,80,16Z"
                  />
                  <path
                    class="cls-1"
                    d="M83.86,15.72v1.54h-.8V15.89a.45.45,0,0,0-.38-.5h-.05c-.31,0-.52.22-.52.7v1.17h-.8V14.75h.8V15a1,1,0,0,1,.77-.32,1,1,0,0,1,1,1Z"
                  />
                  <path
                    class="cls-1"
                    d="M84.53,18.11l.41-.94-1-2.43h.86l.59,1.47L86,14.74h.86L85.4,18.11Z"
                  />
                  <path
                    class="cls-1"
                    d="M87.81,16.83a.46.46,0,1,1-.47-.45h0a.45.45,0,0,1,.46.44Z"
                  />
                  <path
                    class="cls-1"
                    d="M66.47.63a1.78,1.78,0,0,1,.64.64,1.73,1.73,0,0,1,.22.89,1.66,1.66,0,0,1-.23.9,1.78,1.78,0,0,1-.64.64,1.84,1.84,0,0,1-1.79,0A1.69,1.69,0,0,1,64,3a1.77,1.77,0,0,1,0-1.78,1.78,1.78,0,0,1,.67-.61A1.91,1.91,0,0,1,66.47.63Zm-.18,2.79a1.47,1.47,0,0,0,.52-.53,1.51,1.51,0,0,0,0-1.46A1.25,1.25,0,0,0,66.3.92a1.41,1.41,0,0,0-.72-.19,1.36,1.36,0,0,0-.74.19,1.49,1.49,0,0,0-.51.52,1.57,1.57,0,0,0,0,1.46,1.49,1.49,0,0,0,.51.52A1.5,1.5,0,0,0,66.29,3.42Zm.11-1.17a.69.69,0,0,1-.27.24l.42.65H66l-.37-.56h-.34v.56H64.8v-2h.85a.93.93,0,0,1,.62.19.61.61,0,0,1,.23.5.65.65,0,0,1-.1.36Zm-.78-.06a.5.5,0,0,0,.27-.08.27.27,0,0,0,.1-.22.33.33,0,0,0-.1-.23.5.5,0,0,0-.27-.08h-.3v.61Z"
                  />
                </g></svg>